<?xml version="1.0" encoding="UTF-8"?>
<!-- Created with Inkscape (http://www.inkscape.org/) -->
<svg width="20.873" height="24" inkscape:version="1.1 (c68e22c387, 2021-05-23)" sodipodi:docname="logo-small-opt.svg" version="1.1" viewBox="0 0 5.5227 6.35" xmlns="http://www.w3.org/2000/svg" xmlns:inkscape="http://www.inkscape.org/namespaces/inkscape" xmlns:sodipodi="http://sodipodi.sourceforge.net/DTD/sodipodi-0.dtd" xmlns:xlink="http://www.w3.org/1999/xlink">
 <sodipodi:namedview width="512px" bordercolor="#666666" borderopacity="1.0" fit-margin-bottom="0" fit-margin-left="0" fit-margin-right="0" fit-margin-top="0" inkscape:current-layer="layer1" inkscape:cx="40.1875" inkscape:cy="29.1875" inkscape:document-units="px" inkscape:pagecheckerboard="0" inkscape:pageopacity="0.0" inkscape:pageshadow="2" inkscape:window-height="1001" inkscape:window-maximized="1" inkscape:window-width="1920" inkscape:window-x="-9" inkscape:window-y="-9" inkscape:zoom="8" pagecolor="#ffffff" showborder="true" showgrid="false" units="px"/>
 <defs>
  <linearGradient id="linearGradient11577" x1="-58.747" x2="-53.687" y1="144.83" y2="174.98" gradientTransform="matrix(.47483 0 0 .47483 42.32 -4.9295)" gradientUnits="userSpaceOnUse" inkscape:collect="always">
   <stop stop-color="#e51e28" offset="0"/>
   <stop stop-color="#db3423" stop-opacity="0" offset="1"/>
  </linearGradient>
 </defs>
 <g transform="translate(-13.723 -.67838)" inkscape:groupmode="layer" inkscape:label="Layer 1">
  <g transform="matrix(.050474 0 0 .050474 13.031 .64414)">
   <path transform="matrix(.12563 0 0 .12563 45.596 -8.2865)" d="m-253.21 321.71 433.61-250.35 433.61 250.35 1e-5 500.7-433.61 250.35-433.61-250.35z" opacity="0" inkscape:flatsided="true" inkscape:randomized="0" inkscape:rounded="0" sodipodi:arg1="-2.6179939" sodipodi:arg2="-2.0943951" sodipodi:cx="180.40495" sodipodi:cy="572.05328" sodipodi:r1="500.69531" sodipodi:r2="433.61487" sodipodi:sides="6" sodipodi:type="star"/>
   <g fill="none">
    <path d="m68.26 19.523-54.476 31.452"/>
    <path d="m122.74 50.975-54.476-31.452"/>
    <path d="m13.784 76.189 54.476 31.452"/>
    <path d="m68.26 107.64 54.476-31.452"/>
    <path d="m68.26 19.523v-18.845"/>
    <path d="m68.26 107.64v18.845"/>
   </g>
   <g fill="#c51c22">
    <path d="m13.73 41.447v-9.2848l23.779-13.727c13.078-7.5498 25.326-14.621 27.217-15.714l3.4384-1.9866-0.0029 9.3398-0.0029 9.3398-27.022 15.594c-14.861 8.5767-27.108 15.623-27.214 15.659-0.1261 0.04227-0.19277-3.1466-0.19277-9.2202z" opacity=".076782"/>
    <path d="m13.868 49.973c-0.05369-0.39916-0.1082-4.5613-0.12116-9.2492l-0.023557-8.5235 27.097-15.642c14.903-8.6034 27.152-15.642 27.22-15.642 0.06784 0 0.12244 4.1625 0.12135 9.2499l-0.0014 9.2499-25.992 15.013c-14.296 8.2571-26.49 15.296-27.098 15.642l-1.1052 0.62889z" opacity=".87569"/>
    <path d="m68.361 117.11 0.0043-9.3564 27.023-15.594c14.863-8.5767 27.108-15.623 27.213-15.659 0.1224-0.04155 0.18997 3.2383 0.18997 9.2228v9.2874l-26.959 15.573c-14.827 8.565-27.075 15.642-27.217 15.728-0.21362 0.12819-0.25743-1.4582-0.25412-9.2015z"/>
   </g>
   <g>
    <path d="m95.433 35.047-27.067-15.632-0.0043-9.3564c-0.0036-7.7433 0.04035-9.3297 0.25392-9.2015 0.14198 0.085204 12.39 7.1626 27.217 15.728l26.959 15.573v9.2713c0 5.0992-0.0653 9.2668-0.14529 9.2612-0.0798-0.0057-12.326-7.0446-27.213-15.642z" fill="#e51e28" opacity=".58501"/>
    <path d="m40.898 110.7-27.169-15.708v-9.264c0-5.0952 0.0499-9.264 0.11092-9.264 0.06101 0 12.307 7.0391 27.214 15.642l27.103 15.642 0.0029 9.3468c0.0014 5.1407-0.01901 9.3391-0.04564 9.3297-0.02663-9e-3 -12.274-7.0857-27.217-15.725z" fill="#e51e28" opacity=".58501"/>
    <rect transform="rotate(-2.8762)" x="10.884" y="59.435" width="108.67" height="14.96" fill="url(#linearGradient11577)" style="mix-blend-mode:color-burn"/>
   </g>
  </g>
 </g>
</svg>
