<?xml version="1.0" encoding="UTF-8" standalone="no"?>
<!-- Created with Inkscape (http://www.inkscape.org/) -->

<svg
   width="512"
   height="481"
   viewBox="0 0 135.46666 127.26459"
   version="1.1"
   id="svg5"
   inkscape:version="1.1 (c68e22c387, 2021-05-23)"
   sodipodi:docname="logo2.svg"
   xmlns:inkscape="http://www.inkscape.org/namespaces/inkscape"
   xmlns:sodipodi="http://sodipodi.sourceforge.net/DTD/sodipodi-0.dtd"
   xmlns:xlink="http://www.w3.org/1999/xlink"
   xmlns="http://www.w3.org/2000/svg"
   xmlns:svg="http://www.w3.org/2000/svg">
  <sodipodi:namedview
     id="namedview7"
     pagecolor="#ffffff"
     bordercolor="#666666"
     borderopacity="1.0"
     inkscape:pageshadow="2"
     inkscape:pageopacity="0.0"
     inkscape:pagecheckerboard="0"
     inkscape:document-units="px"
     showgrid="false"
     showborder="true"
     inkscape:zoom="1"
     inkscape:cx="308.5"
     inkscape:cy="226.5"
     inkscape:window-width="1920"
     inkscape:window-height="1001"
     inkscape:window-x="-9"
     inkscape:window-y="-9"
     inkscape:window-maximized="1"
     inkscape:current-layer="layer1"
     units="px"
     width="512px" />
  <defs
     id="defs2">
    <linearGradient
       inkscape:collect="always"
       id="linearGradient11575">
      <stop
         style="stop-color:#e51e28;stop-opacity:1;"
         offset="0"
         id="stop11571" />
      <stop
         style="stop-color:#db3423;stop-opacity:0"
         offset="1"
         id="stop11573" />
    </linearGradient>
    <linearGradient
       id="linearGradient9101"
       inkscape:swatch="solid">
      <stop
         style="stop-color:#e51e28;stop-opacity:1;"
         offset="0"
         id="stop9099" />
    </linearGradient>
    <linearGradient
       inkscape:collect="always"
       xlink:href="#linearGradient11575"
       id="linearGradient11577"
       x1="-58.747253"
       y1="144.82831"
       x2="-53.686855"
       y2="174.98103"
       gradientUnits="userSpaceOnUse"
       gradientTransform="matrix(0.47483013,0,0,0.47483013,42.320252,-4.929533)" />
  </defs>
  <g
     inkscape:label="Layer 1"
     inkscape:groupmode="layer"
     id="layer1">
    <path
       sodipodi:type="star"
       style="opacity:0;stroke:none"
       id="path848"
       inkscape:flatsided="true"
       sodipodi:sides="6"
       sodipodi:cx="180.40495"
       sodipodi:cy="572.05328"
       sodipodi:r1="500.69531"
       sodipodi:r2="433.61487"
       sodipodi:arg1="-2.6179939"
       sodipodi:arg2="-2.0943951"
       inkscape:rounded="0"
       inkscape:randomized="0"
       d="M -253.20991,321.70564 180.40494,71.357971 614.01981,321.70562 614.01982,822.40093 180.40496,1072.7486 -253.2099,822.40095 Z"
       transform="matrix(0.12563215,0,0,0.12563215,45.595774,-8.2864728)" />
    <path
       style="fill:none;stroke:none;stroke-width:0.125631px;stroke-linecap:butt;stroke-linejoin:miter;stroke-opacity:1"
       d="M 68.260435,19.523202 13.784469,50.974921"
       id="path1807" />
    <path
       style="fill:none;stroke:none;stroke-width:0.125631px;stroke-linecap:butt;stroke-linejoin:miter;stroke-opacity:1"
       d="M 122.7364,50.974915 68.260435,19.523202"
       id="path1809" />
    <path
       style="fill:none;stroke:none;stroke-width:0.125631px;stroke-linecap:butt;stroke-linejoin:miter;stroke-opacity:1"
       d="M 13.784469,76.188699 68.260441,107.64041"
       id="path1811" />
    <path
       style="fill:none;stroke:none;stroke-width:0.125631px;stroke-linecap:butt;stroke-linejoin:miter;stroke-opacity:1"
       d="M 68.260441,107.64041 122.7364,76.188699"
       id="path1926" />
    <path
       style="fill:none;stroke:none;stroke-width:0.125631px;stroke-linecap:butt;stroke-linejoin:miter;stroke-opacity:1"
       d="M 68.260435,19.523202 V 0.67838223"
       id="path2341" />
    <path
       style="fill:none;stroke:none;stroke-width:0.125631px;stroke-linecap:butt;stroke-linejoin:miter;stroke-opacity:1"
       d="m 68.260441,107.64041 v 18.84482"
       id="path2343" />
    <path
       style="opacity:0.0767825;fill:#c51c22;fill-opacity:1;stroke:none;stroke-width:0.193715"
       d="M 13.729649,41.447235 V 32.162417 L 37.50817,18.435418 C 50.586357,10.885569 62.833992,3.8144565 64.725138,2.7218344 l 3.438439,-1.98658697 -0.0029,9.33976657 -0.0029,9.339765 -27.021573,15.594062 c -14.86132,8.576732 -27.107776,15.623121 -27.213799,15.65863 -0.1261,0.04227 -0.192768,-3.146639 -0.192768,-9.220236 z"
       id="path2382" />
    <path
       style="opacity:0.875686;fill:#c51c22;fill-opacity:1;stroke:none;stroke-width:0.193715"
       d="m 13.867988,49.972648 c -0.05369,-0.399162 -0.108202,-4.561305 -0.12116,-9.24921 L 13.723271,32.199973 40.820087,16.557482 C 55.723339,7.9541126 67.972406,0.91499203 68.040239,0.91499203 c 0.06784,0 0.122442,4.16245227 0.121346,9.24989297 l -0.0014,9.249894 -25.991809,15.012916 c -14.295989,8.257108 -26.48964,15.29592 -27.097501,15.64181 l -1.105199,0.628894 z"
       id="path2569" />
    <path
       style="opacity:1;fill:#c51c22;fill-opacity:1;stroke:none;stroke-width:0.193715"
       d="m 68.361298,117.10522 0.0043,-9.35639 27.022977,-15.594048 c 14.862625,-8.576724 27.108455,-15.623118 27.212945,-15.65863 0.1224,-0.04155 0.18997,3.238292 0.18997,9.222835 v 9.287396 L 95.832659,110.57906 c -14.827357,8.56501 -27.074992,15.64241 -27.216973,15.72763 -0.213625,0.12819 -0.257432,-1.45818 -0.254121,-9.20147 z"
       id="path4417" />
    <path
       style="opacity:0.585009;fill:#e51e28;fill-opacity:1;stroke:none;stroke-width:0.193715"
       d="m 95.433181,35.047253 -27.067477,-15.632474 -0.0043,-9.356378 c -0.0036,-7.7433339 0.04035,-9.32966817 0.253921,-9.20146337 0.141982,0.085204 12.389609,7.16262707 27.216967,15.72761037 l 26.958848,15.5727 v 9.271259 c 0,5.09919 -0.0653,9.26675 -0.14529,9.261237 -0.0798,-0.0057 -12.32566,-7.044628 -27.212771,-15.642491 z"
       id="path5085" />
    <path
       style="opacity:0.585009;fill:#e51e28;fill-opacity:1;stroke:none;stroke-width:0.193715"
       d="M 40.898184,110.70002 13.729649,94.991804 v -9.263971 c 0,-5.095181 0.0499,-9.263962 0.110916,-9.263962 0.06101,0 12.307378,7.039113 27.214166,15.642485 l 27.103252,15.642474 0.0029,9.34676 c 0.0014,5.1407 -0.01901,9.33908 -0.04564,9.32969 -0.02663,-0.009 -12.27427,-7.08573 -27.216962,-15.72526 z"
       id="path6382" />
    <rect
       style="opacity:1;mix-blend-mode:color-burn;fill:url(#linearGradient11577);fill-opacity:1;stroke:none;stroke-width:0.0915158"
       id="rect6669"
       width="108.67414"
       height="14.960024"
       x="10.883786"
       y="59.435413"
       transform="rotate(-2.8761904)" />
  </g>
</svg>
